HIERARCHY
ROOT Hips
{
	OFFSET -14.64140 90.27770 -84.91600
	CHANNELS 6 Xposition Yposition Zposition Zrotation Xrotation Yrotation
	JOINT Spine
	{
		OFFSET 0.00000 13.20850 -1.60436
		CHANNELS 3 Zrotation Xrotation Yrotation
		JOINT Spine1
		{
			OFFSET 0.00000 8.61716 0.00000
			CHANNELS 3 Zrotation Xrotation Yrotation
			JOINT Spine2
			{
				OFFSET 0.00000 8.61717 0.00000
				CHANNELS 3 Zrotation Xrotation Yrotation
				JOINT Spine3
				{
					OFFSET 0.00000 8.61717 0.00000
					CHANNELS 3 Zrotation Xrotation Yrotation
					JOINT Neck
					{
						OFFSET 0.00000 11.07920 1.10792
						CHANNELS 3 Zrotation Xrotation Yrotation
						JOINT Neck1
						{
							OFFSET 0.00000 7.08032 0.00000
							CHANNELS 3 Zrotation Xrotation Yrotation
							JOINT Head
							{
								OFFSET 0.00000 7.08031 0.00000
								CHANNELS 3 Zrotation Xrotation Yrotation
								End site
								{
									OFFSET 0.00000 0.00000 0.00000
								}
							}
						}
					}
					JOINT RightShoulder
					{
						OFFSET -0.01000 7.91373 5.19711
						CHANNELS 3 Zrotation Xrotation Yrotation
						JOINT RightArm
						{
							OFFSET -18.41580 0.00000 0.00000
							CHANNELS 3 Zrotation Xrotation Yrotation
							JOINT RightForeArm
							{
								OFFSET -29.11090 0.00000 0.00000
								CHANNELS 3 Zrotation Xrotation Yrotation
								JOINT RightHand
								{
									OFFSET -24.65040 0.00000 0.00000
									CHANNELS 3 Zrotation Xrotation Yrotation
									JOINT RightHandThumb1
									{
										OFFSET -5.35114 -0.85590 3.97906
										CHANNELS 3 Zrotation Xrotation Yrotation
										JOINT RightHandThumb2
										{
											OFFSET -4.52789 0.00000 0.00000
											CHANNELS 3 Zrotation Xrotation Yrotation
											JOINT RightHandThumb3
											{
												OFFSET -2.46976 0.00000 0.00000
												CHANNELS 3 Zrotation Xrotation Yrotation
												End site
												{
													OFFSET 0.00000 0.00000 0.00000
												}
											}
										}
									}
									JOINT RightHandIndex1
									{
										OFFSET -14.26970 0.00000 2.88139
										CHANNELS 3 Zrotation Xrotation Yrotation
										JOINT RightHandIndex2
										{
											OFFSET -5.48836 0.00000 0.00000
											CHANNELS 3 Zrotation Xrotation Yrotation
											JOINT RightHandIndex3
											{
												OFFSET -3.01859 0.00000 0.00000
												CHANNELS 3 Zrotation Xrotation Yrotation
												End site
												{
													OFFSET 0.00000 0.00000 0.00000
												}
											}
										}
									}
									JOINT RightHandMiddle1
									{
										OFFSET -14.26970 0.00000 -0.09147
										CHANNELS 3 Zrotation Xrotation Yrotation
										JOINT RightHandMiddle2
										{
											OFFSET -6.17441 0.00000 0.00000
											CHANNELS 3 Zrotation Xrotation Yrotation
											JOINT RightHandMiddle3
											{
												OFFSET -3.56743 0.00000 0.00000
												CHANNELS 3 Zrotation Xrotation Yrotation
												End site
												{
													OFFSET 0.00000 0.00000 0.00000
												}
											}
										}
									}
									JOINT RightHandRing1
									{
										OFFSET -12.69180 0.00000 -3.06433
										CHANNELS 3 Zrotation Xrotation Yrotation
										JOINT RightHandRing2
										{
											OFFSET -5.62556 0.00000 0.00000
											CHANNELS 3 Zrotation Xrotation Yrotation
											JOINT RightHandRing3
											{
												OFFSET -3.56744 0.00000 0.00000
												CHANNELS 3 Zrotation Xrotation Yrotation
												End site
												{
													OFFSET 0.00000 0.00000 0.00000
												}
											}
										}
									}
									JOINT RightHandPinky1
									{
										OFFSET -11.11390 0.00000 -6.03719
										CHANNELS 3 Zrotation Xrotation Yrotation
										JOINT RightHandPinky2
										{
											OFFSET -4.52789 0.00000 0.00000
											CHANNELS 3 Zrotation Xrotation Yrotation
											JOINT RightHandPinky3
											{
												OFFSET -2.46976 0.00000 0.00000
												CHANNELS 3 Zrotation Xrotation Yrotation
												End site
												{
													OFFSET 0.00000 0.00000 0.00000
												}
											}
										}
									}
								}
							}
						}
					}
					JOINT LeftShoulder
					{
						OFFSET 0.01000 7.91373 5.19711
						CHANNELS 3 Zrotation Xrotation Yrotation
						JOINT LeftArm
						{
							OFFSET 18.41580 0.00000 0.00000
							CHANNELS 3 Zrotation Xrotation Yrotation
							JOINT LeftForeArm
							{
								OFFSET 29.11090 0.00000 0.00000
								CHANNELS 3 Zrotation Xrotation Yrotation
								JOINT LeftHand
								{
									OFFSET 24.65040 0.00000 0.00000
									CHANNELS 3 Zrotation Xrotation Yrotation
									JOINT LeftHandThumb1
									{
										OFFSET 5.35114 -0.85590 3.97906
										CHANNELS 3 Zrotation Xrotation Yrotation
										JOINT LeftHandThumb2
										{
											OFFSET 4.52789 0.00000 0.00000
											CHANNELS 3 Zrotation Xrotation Yrotation
											JOINT LeftHandThumb3
											{
												OFFSET 2.46977 0.00000 0.00000
												CHANNELS 3 Zrotation Xrotation Yrotation
												End site
												{
													OFFSET 0.00000 0.00000 0.00000
												}
											}
										}
									}
									JOINT LeftHandIndex1
									{
										OFFSET 14.26970 0.00000 2.88139
										CHANNELS 3 Zrotation Xrotation Yrotation
										JOINT LeftHandIndex2
										{
											OFFSET 5.48836 0.00000 0.00000
											CHANNELS 3 Zrotation Xrotation Yrotation
											JOINT LeftHandIndex3
											{
												OFFSET 3.01859 0.00000 0.00000
												CHANNELS 3 Zrotation Xrotation Yrotation
												End site
												{
													OFFSET 0.00000 0.00000 0.00000
												}
											}
										}
									}
									JOINT LeftHandMiddle1
									{
										OFFSET 14.26970 0.00000 -0.09147
										CHANNELS 3 Zrotation Xrotation Yrotation
										JOINT LeftHandMiddle2
										{
											OFFSET 6.17440 0.00000 0.00000
											CHANNELS 3 Zrotation Xrotation Yrotation
											JOINT LeftHandMiddle3
											{
												OFFSET 3.56744 0.00000 0.00000
												CHANNELS 3 Zrotation Xrotation Yrotation
												End site
												{
													OFFSET 0.00000 0.00000 0.00000
												}
											}
										}
									}
									JOINT LeftHandRing1
									{
										OFFSET 12.69180 0.00000 -3.06433
										CHANNELS 3 Zrotation Xrotation Yrotation
										JOINT LeftHandRing2
										{
											OFFSET 5.62556 0.00000 0.00000
											CHANNELS 3 Zrotation Xrotation Yrotation
											JOINT LeftHandRing3
											{
												OFFSET 3.56744 0.00000 0.00000
												CHANNELS 3 Zrotation Xrotation Yrotation
												End site
												{
													OFFSET 0.00000 0.00000 0.00000
												}
											}
										}
									}
									JOINT LeftHandPinky1
									{
										OFFSET 11.11390 0.00000 -6.03719
										CHANNELS 3 Zrotation Xrotation Yrotation
										JOINT LeftHandPinky2
										{
											OFFSET 4.52789 0.00000 0.00000
											CHANNELS 3 Zrotation Xrotation Yrotation
											JOINT LeftHandPinky3
											{
												OFFSET 2.46976 0.00000 0.00000
												CHANNELS 3 Zrotation Xrotation Yrotation
												End site
												{
													OFFSET 0.00000 0.00000 0.00000
												}
											}
										}
									}
								}
							}
						}
					}
					JOINT pCube4
					{
						OFFSET 0.00000 10.91090 1.10792
						CHANNELS 3 Zrotation Xrotation Yrotation
						End site
						{
							OFFSET 0.00000 0.00000 0.00000
						}
					}
				}
			}
		}
	}
	JOINT RightUpLeg
	{
		OFFSET -9.98441 0.00000 0.00000
		CHANNELS 3 Zrotation Xrotation Yrotation
		JOINT RightLeg
		{
			OFFSET 0.00000 -42.11790 0.00000
			CHANNELS 3 Zrotation Xrotation Yrotation
			JOINT RightFoot
			{
				OFFSET 0.00000 -45.00020 -0.00001
				CHANNELS 3 Zrotation Xrotation Yrotation
				JOINT RightForeFoot
				{
					OFFSET 0.00000 -3.74820 0.00000
					CHANNELS 3 Zrotation Xrotation Yrotation
					JOINT RightToeBase
					{
						OFFSET 0.00000 0.06325 14.43120
						CHANNELS 3 Zrotation Xrotation Yrotation
						End site
						{
							OFFSET 0.00000 0.00000 0.00000
						}
					}
				}
			}
		}
	}
	JOINT LeftUpLeg
	{
		OFFSET 9.98441 0.00000 0.00000
		CHANNELS 3 Zrotation Xrotation Yrotation
		JOINT LeftLeg
		{
			OFFSET 0.00000 -42.11800 0.00000
			CHANNELS 3 Zrotation Xrotation Yrotation
			JOINT LeftFoot
			{
				OFFSET 0.00000 -45.00070 0.00000
				CHANNELS 3 Zrotation Xrotation Yrotation
				JOINT LeftForeFoot
				{
					OFFSET 0.00000 -3.74824 0.00000
					CHANNELS 3 Zrotation Xrotation Yrotation
					JOINT LeftToeBase
					{
						OFFSET 0.00000 0.06325 14.43110
						CHANNELS 3 Zrotation Xrotation Yrotation
						End site
						{
							OFFSET 0.00000 0.00000 0.00000
						}
					}
				}
			}
		}
	}
}
MOTION
Frames: 4
Frame Time: 0.050000
0.039814656061354155 0.04345561287228639 -0.02425772280868574 -0.014546086521717187 0.005327046857648849 -0.01083736352648625 -2.4449419432540394 -0.5345332692592139 -0.8091134891077221 -0.9485881917865051 3.6538186535903034 0.4026212414337989 -1.1432598420848845 -2.124581183484992 -0.4424867514035855 -0.23859862714690316 0.2137506132884439 -0.7056936819514475 -0.30984217956863447 13.982209169667914 1.0643052630123941 0.2771052653957138 1.2636518042040343 0.971475392273468 -0.08115508052908306 -12.846860124009716 0.14110069934820388 -4.743709164565964 1.8044139107267505 -15.184201640184689 70.5686860488408 18.66590208413307 10.520272910803293 9.922225419516051 2.9670270650022443 104.69055933947736 15.450530005788185 -0.5306325129102252 -4.274782764634473 4.548853176638908 -0.14646791357674033 -1.5555198167313915 -0.01847890989622809 0.015341897729376407 -56.244839503886745 0.01146950728769257 -0.013571287413725791 -56.20870611587707 -38.79961371988007 -0.023393894557345973 0.000769523955874752 -0.008203290719098309 0.00850495221510981 0.025863043362587067 0.015485922855548222 0.026545855328095554 0.02147718837905868 -36.68040724171937 0.033285155840157475 0.04681830141149672 0.04453205842103758 0.026638448816561192 -0.04555639502874671 0.037381371468914244 0.03403545452656712 0.0077345433806650914 -19.77072754533838 0.030393530848645718 0.020477643977071195 0.04966757297205969 -0.03725691730709396 0.032953434890973195 -0.04144689453706223 0.0008329613936739605 0.03676091890801614 24.060254180542533 -0.027875920187508507 -0.030414329637194405 28.873139906877082 -0.01749149950740087 0.03822221826380323 28.90369424169733 0.047984535134088575 0.032902421806011085 6.936272986006131 1.619116652414024 14.192332872626352 -69.80336732420079 27.20203482527012 -10.049794208303272 -1.8853620455670141 -2.868673248999199 -103.10607436441549 -10.252691228837783 -7.761886517479361 3.993685513552459 -0.4321787308247592 0.06220849703074698 -8.136699313596438 0.006992431702375651 0.008433293946751071 44.57059800914535 0.01788279986212431 0.00895723640024421 44.546505199946 12.507990129269999 -0.016308313941189076 -0.03586213729849618 0.045627616067916564 -0.028412492225727025 -0.028143805304377476 0.002038881653415444 -0.034866458505426016 0.042895515721974344 11.109820440701041 -0.03135317312630416 -0.03386898595952034 0.028607558207268458 -0.04881837364556764 0.0383691895548291 0.022939886724000397 -0.027429211266668536 0.0099333292930684 4.8118203082324476 0.03672610465496553 -0.012089010696469627 -0.004976182909664589 0.024397522420676814 -0.008350379537419786 0.03405479263705579 -0.00724808492469662 -0.005597088608815082 -5.598195226403594 0.04779167798600256 -0.005625529567666447 -6.71595972357819 -0.009022433820575295 0.012003770127219962 -6.75623916784569 0.02702540291087382 0.020993700475629692 -0.0019259314151493275 -0.011078292884761186 0.021407773885228087 8.054589138304593 3.4749092212579447 -19.219641744570175 0.02068559241302591 10.358544763830476 0.03517969892673689 -5.61001894062365 -15.650315238108522 3.146680052499482 0.008709716844561505 -0.013854380244917567 0.012137051124091601 0.026986344811131636 4.6966879822268 0.005412609205711052 12.469647224301658 -8.232559119138907 6.879644975868643 0.00325863491458748 46.375581978887595 -0.0077064640970977705 -4.364005835110317 -14.722737146523984 -3.865325007185098 0.034061179839348955 0.036755053613219936 0.019527517338033328 0.008459445002420369 -10.7020333398543 0.021806966147644546 
0.041606886613883724 0.013217802073138135 0.005484061877912491 0.025865380862737583 -0.03935664887498849 0.010485961578494563 -2.3778399718395886 -0.42345128032233736 -0.8316850863849025 -0.9771606946850327 3.6363782951238632 0.43132391617378096 -1.1651905024627873 -1.9948295733053325 -0.4933686387634372 -0.25073864519231864 0.22258935595130716 -0.743358610835558 -0.2536074215760886 13.792377106236456 1.1152160566670235 0.2395702987197282 1.1419340347103375 1.01711266940591 -0.07086749416288383 -13.054342233919936 0.08675415689847739 -4.502934964893353 1.732611708108874 -15.132411004048475 70.5722142865182 19.55145813735906 10.15825618209709 10.137487713248294 2.704259764103674 104.63352450264212 15.647947171650868 -0.47444615972026416 -4.328000357819002 4.54203739397625 -0.10562148360203494 -1.6197123233831303 0.0456041629481305 0.023757872953319784 -56.271190032800895 0.04304357185839951 0.014879450266548295 -56.22998922925946 -38.805879394500295 0.009098040582459685 -0.004479096248598098 0.006438585075269942 0.008469892575830256 0.030739051851456048 0.011883662426775368 -0.007883759926974888 -0.016503823919743126 -36.73218200188834 0.023580003459091933 0.023084831065939615 -0.0049853174093890335 -0.030792113457763257 0.03658460126536164 -0.04983201036730725 0.006394262463160172 0.027384115916185118 -19.77894262995858 0.011381227367332394 0.011259211017601542 -0.016631583639302183 -0.03829857581999979 -0.012354376483954975 -0.015879243991098635 0.02917193412798781 0.008867548625948605 24.05812006175909 -0.006510911941364188 -0.015137028238031619 28.89895402632455 0.02251007221642928 -0.001122161037986037 28.876548758044983 -0.04039341052028202 0.00017116993456682542 6.7311703288634925 1.551631567774225 14.135804653662786 -69.7584482849352 27.815809368432735 -9.94830794644078 -3.3263149852013743 -2.4164390739601664 -102.18417110124227 -10.820947311710432 -7.82288620287469 4.282063984233436 -0.4729354035230604 0.07804533454380486 -8.082616077350266 0.020517453038265052 0.02052040526682838 44.588065521579786 0.029589811959525154 0.00776882069937905 44.61088998763398 12.462747661962865 0.01327092649241683 -0.044134152754356254 0.027886017741067463 0.02687800132133623 -0.04359519431347969 0.002735407429513895 0.03769937797606266 -0.04581009469566134 11.109816190866994 0.02671807413636028 0.003767442866310187 0.033410194352082145 0.023728845784867388 0.015419867525941872 0.03239249684138382 0.049242270294483984 -0.0055593281935789485 4.734805502684922 -0.022950037655951657 0.01123553675955033 -0.02713776024826444 -0.002645845360565863 -0.01614269546679759 0.0029798884653731658 0.04711304535315686 0.002493471762056923 -5.59593957100357 -0.018305187168046157 -0.030934462822294617 -6.6895672345113235 0.006630983441213281 -0.0034288118898174323 -6.709481907141173 -0.040910202597679746 0.0408109965912895 0.010110460141850498 0.018572408831971872 0.021004485638380612 8.059066688675463 3.5331732882262155 -19.184848434648078 0.0359230841818821 10.407954518278379 0.02845660390880173 -5.619782851253679 -15.623490295511155 3.227046554704855 0.0009958800669405664 0.005305806202159122 -0.017429454623766598 0.04176077737097555 4.679051108470217 0.014280390619829018 12.457523110807893 -8.245414025656006 6.882594559813881 0.0013296991942133582 46.38240788741928 -0.008219878359784976 -4.358708287566913 -14.729824006901229 -3.846147735460318 0.018012017625476176 -0.017417195091069704 0.03510137927032545 -0.028983372716775292 -10.738561066721543 0.02140762465200906 
-0.0230039012193394 0.039327707362309144 0.03376356898398541 -0.0309439472394822 0.031428184694835964 -0.006797474792125758 -2.3414108218586085 -0.26243794529948683 -0.8588843955992501 -0.9229620405760767 3.6608665709937425 0.3424452846915642 -1.1364418741665259 -2.002394228088186 -0.45599786486981103 -0.182466178707902 0.21723947476922895 -0.6888197334006869 -0.29481840459756503 13.667091721040881 1.1061700302356994 0.19961459072771864 1.0478313674294226 1.0774728863653202 -0.06199825147228952 -13.136661146675747 0.10570660520964759 -4.343997057223331 1.6878252261159958 -15.152647105157008 70.77119556173758 19.641621462699412 10.205686118840958 11.02497608702885 2.6735230161251597 104.31678502156947 15.63633939114339 -0.4890035599866476 -4.311634772276397 4.518931631388672 -0.13877389247612193 -1.565761218009548 0.043045593823042246 0.03758304045764762 -56.23627608098719 0.010306261804754026 -0.02146056801058739 -56.27081771271721 -38.816960922700154 0.014627273303196074 0.03052278145491705 0.015970939920987658 0.01933410833009808 0.018536140956286803 0.004102286525025441 -0.04565726588878118 0.009518515090330732 -36.72446081027215 -0.015559957603560937 0.008885899262988904 0.04574367743816309 -0.01555077022120775 -0.004016998666081219 -0.007398985942867027 0.014953904171705114 0.01878251215636254 -19.782900340927966 -0.012875943630980208 0.04225117164103164 0.0023012697475308093 -0.011770414858503593 -0.017848513580091423 -0.013542141062889744 0.035291407177739396 -0.03006362256969795 24.09261657255378 0.017115476644767657 -0.010018726633339976 28.868572685579576 0.01785600471433773 -0.0023319474116720203 28.87484645751558 0.04163927783110933 -0.013902439471281208 6.590918357715677 1.5928170433368685 14.054132274511751 -69.76262651611792 27.976528312450146 -9.983033695640652 -5.022959193338665 -1.846496915525424 -101.3793769257176 -11.00059616615831 -7.580592632360814 4.285020110097012 -0.4771517018093408 0.11369366051860619 -8.170368631847499 0.0034698061310250404 0.025858592179978743 44.56528255473763 0.04038216734955902 0.04698104473039096 44.61506843677241 12.472076654609427 0.036029247224827685 -0.03761624823331593 0.03674720793370127 0.006097578918681134 0.022638849470653512 0.007668211983872484 0.043674180255616354 0.03413055799245917 11.152737219430064 0.03860653028126494 -0.0069671000297839136 -0.021423640812008465 -0.002325250362111745 0.002843081186317771 -0.044928658223413326 0.03877444095071586 0.03971296179620466 4.733787785842273 -0.016768597815738473 0.0050252600352837535 0.04722357929341912 -0.03479222308714921 0.012512881639224729 -0.04574890124766173 0.0357054241178535 0.012846372298413096 -5.572469012848021 -0.04664614455454458 -0.03303680710895002 -6.684388155693522 -0.03966618440065461 0.011491567484780238 -6.69445790721752 -0.029685899315030174 -0.03528049710848032 -0.001577407717400054 -0.023589834971168278 0.04119407749754115 8.029809841523452 3.466564929230183 -19.22082154195562 0.037129565977915176 10.397719717511848 0.029985293320050732 -5.59782952790124 -15.652318401276188 3.1916410263552635 -0.023637917704680805 0.0024551509013707234 -0.009587588913893554 -0.0286353916143972 4.688940198978425 0.04203967781036369 12.460198343828095 -8.282908477799166 6.86527837319223 -0.038711495233566776 46.38679366582325 -0.03774956315699596 -4.366087522426468 -14.795333814216052 -3.8213446653708085 0.01311179596029339 -0.024870593163033913 0.009121933929238301 0.035268717484921365 -10.776365848673015 -0.009162376722581892 
-0.007305748259395391 -0.03355903043177818 0.011821891146906287 -0.0010650663595844058 0.0436340746521688 -0.03360996847784409 -2.3351745129419554 -0.15317509300832652 -0.8564549606719152 -0.9588561278409308 3.7193957299604663 0.36029805349510924 -1.1502285769671865 -1.955542114742149 -0.4399059249248461 -0.23201952381555052 0.2754135708505739 -0.7720343859398349 -0.354093694928802 13.598072465432136 1.1176474977754827 0.21670529646122616 0.995208222761523 1.0546753895447594 -0.09290228758351886 -13.245607352858418 0.1326159476746278 -4.196846896204145 1.705861023248835 -15.10738184740683 70.82394419204289 19.28775444532335 10.209654017142052 12.106707919096023 2.7373576587862285 103.62775316241355 15.447590201056359 -0.4547671203408312 -4.198239792761976 4.550336946784735 -0.12533953229972625 -1.5601687555175339 0.02394489994344059 0.009432958476556041 -56.27254478637862 -0.019533131161253537 -0.016449766093749537 -56.23829575841261 -38.762800091566035 -0.03758701604828525 -0.00026522653787444775 0.009505571453310801 0.01855750789933025 -0.0061248924207766035 0.019711580146542836 -0.04754131342733946 -0.01712800176819023 -36.69831947053881 0.03504511494357069 -0.04383048211474766 -0.002536116140288009 0.007087720000366869 -0.038188966453769235 0.03506083446020875 0.043102545878782345 -0.014046077729586735 -19.805765224247708 -0.02751471121981663 0.024884573260625632 -0.03242916438804557 0.019460833091631196 -0.0013821186670461903 -0.00235946350115557 0.021612852241343225 0.037925643569855005 24.053474078685355 0.011156480737965855 -0.013231454754641405 28.86464572272159 0.011696351002823794 -0.013571177253165607 28.904536180647213 0.007647996266418755 0.028670344144383696 6.512376035589315 1.481578962166325 13.987365143089482 -69.78121834855003 27.660258327811892 -10.357803098376365 -6.577442189071126 -1.4403283035060777 -100.6034687109404 -10.869356038885801 -7.166276801157947 4.188232191551765 -0.5005478458797809 0.04185656301090716 -8.09165524361354 0.04098729727726557 -0.002484183670121004 44.595299085645 -0.03972921781764657 -0.03694855577870781 44.59033672721398 12.468416140142269 0.011193176648347241 -0.0001752914346825958 0.026231998951890146 0.029078214620456955 -0.01665980028764591 0.04975461048670162 0.02677974105094156 -0.020518891896754165 11.10011893521807 -0.047765417562365166 -0.02069430178433668 0.008717629305082845 -0.04320734321933573 -0.04079797803568982 0.015740082273246008 -0.01858131897946281 -0.04714871516141334 4.781585072974911 0.0011548282173020276 -0.04935971179972861 0.014822518926893015 0.030775987542956004 -0.005014717116972252 0.04862381904903415 0.041003765601312366 0.012604451577001482 -5.623732953072311 -0.024997882388891886 0.024999028935075333 -6.755669565307777 0.024177224059681177 -0.04772286722180082 -6.68701513944043 0.01620093378187402 0.010272681718375802 -0.007475800148038379 0.020597655637561583 -0.00986677523634396 8.034170878866808 3.477271131047803 -19.184419608986843 0.018999799769137484 10.4321734413777 0.005789074764694429 -5.608043531159927 -15.651150964758349 3.1848180143232803 0.004327773318163565 0.03272327996411452 0.020614006621074807 0.037663379143945824 4.71714305163473 0.03950015271435522 12.482153901801643 -8.210778987113082 6.923264691402749 -0.007822553641518033 46.37015304229513 -0.013268962968474402 -4.288107944332773 -14.752927730671741 -3.8745308398794793 0.032772541022871436 -0.021555780882891916 -0.0007793462873276344 -0.013177408490461463 -10.750747789735957 0.0022815471471563263 
